<svg width="13" height="14" viewBox="0 0 13 14" fill="none" xmlns="http://www.w3.org/2000/svg">
<g clip-path="url(#clip0_318_2158)">
<path d="M9.48094 0.336426H3.51891C1.57852 0.336426 -6.10352e-05 1.95432 -6.10352e-05 3.94303V10.0536C-6.10352e-05 12.0422 1.57852 13.6601 3.51891 13.6601H9.48104C11.4213 13.6601 12.9999 12.0422 12.9999 10.0536V3.94303C12.9999 1.95432 11.4213 0.336426 9.48094 0.336426V0.336426ZM12.2378 10.0536C12.2378 11.6115 11.0011 12.879 9.48094 12.879H3.51891C1.99875 12.879 0.762053 11.6115 0.762053 10.0536V3.94303C0.762053 2.38501 1.99875 1.11752 3.51891 1.11752H9.48104C11.0011 1.11752 12.2378 2.38501 12.2378 3.94303V10.0536Z" fill="#E47500"/>
<path d="M6.49992 3.35522C4.53989 3.35522 2.94534 4.98948 2.94534 6.99832C2.94534 9.00717 4.53989 10.6414 6.49992 10.6414C8.45996 10.6414 10.0545 9.00717 10.0545 6.99832C10.0545 4.98948 8.45996 3.35522 6.49992 3.35522ZM6.49992 9.86033C4.96022 9.86033 3.70746 8.57647 3.70746 6.99832C3.70746 5.42028 4.96022 4.13632 6.49992 4.13632C8.03972 4.13632 9.29239 5.42028 9.29239 6.99832C9.29239 8.57647 8.03972 9.86033 6.49992 9.86033Z" fill="#E47500"/>
<path d="M10.1395 2.0614C9.56029 2.0614 9.08917 2.54435 9.08917 3.13789C9.08917 3.73154 9.56029 4.21449 10.1395 4.21449C10.7187 4.21449 11.1899 3.73154 11.1899 3.13789C11.1899 2.54425 10.7187 2.0614 10.1395 2.0614ZM10.1395 3.43329C9.98062 3.43329 9.85129 3.30074 9.85129 3.13789C9.85129 2.97495 9.98062 2.84249 10.1395 2.84249C10.2985 2.84249 10.4278 2.97495 10.4278 3.13789C10.4278 3.30074 10.2985 3.43329 10.1395 3.43329Z" fill="#E47500"/>
</g>
<defs>
<clipPath id="clip0_318_2158">
<rect width="13" height="13.3237" fill="white" transform="translate(-6.10352e-05 0.336426)"/>
</clipPath>
</defs>
</svg>
