<svg width="11" height="12" viewBox="0 0 11 12" fill="none" xmlns="http://www.w3.org/2000/svg">
<g clip-path="url(#clip0_318_2172)">
<path d="M10.9973 11.6353V11.6348H11V7.50007C11 5.47734 10.5751 3.91919 8.26789 3.91919C7.15873 3.91919 6.41439 4.54301 6.11052 5.13443H6.07843V4.10803H3.89081V11.6348H6.16873V7.90781C6.16873 6.92651 6.35023 5.97762 7.53593 5.97762C8.70423 5.97762 8.72164 7.0975 8.72164 7.97076V11.6353H10.9973Z" fill="#E47500"/>
<path d="M0.181519 4.10852H2.46219V11.6353H0.181519V4.10852Z" fill="#E47500"/>
<path d="M1.32092 0.361328C0.591708 0.361328 0 0.967771 0 1.71514C0 2.46251 0.591708 3.08163 1.32092 3.08163C2.05013 3.08163 2.64183 2.46251 2.64183 1.71514C2.64138 0.967771 2.04967 0.361328 1.32092 0.361328V0.361328Z" fill="#E47500"/>
</g>
<defs>
<clipPath id="clip0_318_2172">
<rect width="11" height="11.2739" fill="white" transform="translate(0 0.361328)"/>
</clipPath>
</defs>
</svg>
