<svg width="13" height="15" viewBox="0 0 13 15" fill="none" xmlns="http://www.w3.org/2000/svg">
<path d="M6.86781 0C3.60805 0 0.955917 2.24306 0.955917 5.00001C0.955917 5.82765 1.20058 6.64825 1.66569 7.3761L6.54452 14.8389C6.60947 14.9384 6.73323 15 6.86781 15C7.00239 15 7.12615 14.9384 7.1911 14.8389L12.0717 7.37364C12.535 6.64825 12.7797 5.82762 12.7797 4.99998C12.7797 2.24306 10.1276 0 6.86781 0ZM6.86781 7.5C5.23793 7.5 3.91188 6.37849 3.91188 5.00001C3.91188 3.62153 5.23793 2.50002 6.86781 2.50002C8.49769 2.50002 9.82374 3.62153 9.82374 5.00001C9.82374 6.37849 8.49769 7.5 6.86781 7.5Z" fill="black"/>
</svg>
