<svg width="18" height="15" viewBox="0 0 18 15" fill="none" xmlns="http://www.w3.org/2000/svg">
<path d="M17.3121 11.0085L14.837 8.91519C13.9531 8.16759 12.4504 8.46666 12.0968 9.43852C11.8316 10.1114 10.9476 10.4852 10.1521 10.3356C8.38419 9.96184 5.99752 8.01807 5.55555 6.4481C5.29036 5.77522 5.82073 5.02762 6.61629 4.80336C7.76542 4.50432 8.11901 3.23339 7.23505 2.48579L4.75999 0.392493C4.05283 -0.130831 2.99209 -0.130831 2.37333 0.392493L0.693821 1.81294C-0.985685 3.30815 0.870611 7.27046 5.02518 10.7842C9.17975 14.298 13.8647 15.9427 15.6326 14.4475L17.3121 13.027C17.9309 12.4289 17.9309 11.5318 17.3121 11.0085Z" fill="black"/>
</svg>
