<svg width="13" height="12" viewBox="0 0 13 12" fill="none" xmlns="http://www.w3.org/2000/svg">
<path d="M13 1.89205C12.5166 2.10939 12.0014 2.25346 11.4644 2.32341C12.0169 1.98532 12.4386 1.45403 12.6368 0.81366C12.1217 1.12843 11.5529 1.35077 10.9468 1.47485C10.4577 0.941069 9.76056 0.610474 9.00006 0.610474C7.52456 0.610474 6.33669 1.83792 6.33669 3.34267C6.33669 3.55918 6.35456 3.76736 6.39844 3.96556C4.18275 3.8548 2.22219 2.76642 0.905125 1.10845C0.675187 1.51732 0.540312 1.98532 0.540312 2.48912C0.540312 3.4351 1.01562 4.27367 1.72412 4.75915C1.29594 4.75082 0.875875 4.62341 0.52 4.42273C0.52 4.43105 0.52 4.44188 0.52 4.4527C0.52 5.78008 1.44381 6.88262 2.65525 7.1366C2.43831 7.19739 2.20187 7.22654 1.9565 7.22654C1.78587 7.22654 1.61362 7.21655 1.45194 7.1799C1.79725 8.26163 2.77712 9.05688 3.94225 9.0827C3.0355 9.80968 1.88419 10.2477 0.637812 10.2477C0.41925 10.2477 0.209625 10.2377 0 10.2102C1.18056 10.9905 2.57969 11.436 4.0885 11.436C8.99275 11.436 11.674 7.27234 11.674 3.66327C11.674 3.54253 11.6699 3.42594 11.6642 3.31019C12.1932 2.92547 12.6376 2.44498 13 1.89205Z" fill="#E47500"/>
</svg>
